Coordinates
version=1
nRows=13
nColumns=40
inDegrees=yes

Units are S.I. units (second, meters, Newtons, ...)
Angles are in degrees.

endheader
time	pelvis_tilt	pelvis_list	pelvis_rotation	pelvis_tx	pelvis_ty	pelvis_tz	hip_flexion_r	hip_adduction_r	hip_rotation_r	knee_angle_r	knee_angle_r_beta	ankle_angle_r	subtalar_angle_r	mtp_angle_r	hip_flexion_l	hip_adduction_l	hip_rotation_l	knee_angle_l	knee_angle_l_beta	ankle_angle_l	subtalar_angle_l	mtp_angle_l	lumbar_extension	lumbar_bending	lumbar_rotation	arm_flex_r	arm_add_r	arm_rot_r	elbow_flex_r	pro_sup_r	wrist_flex_r	wrist_dev_r	arm_flex_l	arm_add_l	arm_rot_l	elbow_flex_l	pro_sup_l	wrist_flex_l	wrist_dev_l
      0.00000000	     -2.75652664	     -1.13255148	      2.53105763	     -0.97263724	      0.89782991	      1.06841315	     26.31094105	     -3.34427503	    -10.81340653	    -48.83039837	     -0.85225123	      5.73320423	    -17.05315708	     20.68685060	     13.37209874	     -1.36681100	     10.70747145	    -27.53700521	     -0.48061141	     12.66235535	     10.50398782	     -0.79735161	     -4.34442527	     -1.01231207	     -6.66079832	     -4.60256660	     -7.73305429	    -19.87144967	     25.52523264	     89.95437384	      0.00000000	      0.00000000	      2.01390188	     10.69322391	     22.90902547	     34.32742965	     89.95437384	      0.00000000	      0.00000000
      0.01000000	     -2.98067789	     -1.14150118	      2.76775410	     -0.96664012	      0.89743965	      1.06807900	     26.97654347	     -3.35226177	    -10.89137078	    -46.84290329	     -0.81756289	      5.98232142	    -16.66991917	     20.37079723	     13.13588772	     -1.38248555	     10.61492717	    -27.43392010	     -0.47881223	     12.87444814	     10.18320075	     -0.82516302	     -4.16686328	     -0.98709317	     -6.89961505	     -4.61301689	     -7.68526536	    -19.92910458	     25.65699164	     89.95437384	      0.00000000	      0.00000000	      2.15944985	     10.85287861	     22.68442834	     34.88558697	     89.95437384	      0.00000000	      0.00000000
      0.02000000	     -2.89429309	     -1.35941700	      3.10177150	     -0.96038292	      0.89751512	      1.06775918	     27.09666871	     -3.18082442	    -11.33597156	    -44.49795498	     -0.77663582	      5.78926819	    -16.46836206	     20.22399780	     12.55894905	     -1.13902539	     10.49333365	    -27.35417436	     -0.47742041	     13.14927695	      9.85815673	     -0.91326781	     -4.33212713	     -0.70108188	     -7.15205842	     -4.59593587	     -7.65057046	    -20.19602699	     25.77780009	     89.95437384	      0.00000000	      0.00000000	      2.39209352	     10.93502273	     22.46998655	     35.41061044	     89.95437384	      0.00000000	      0.00000000
      0.03000000	     -3.25995027	     -1.16728069	      3.21544700	     -0.95434112	      0.89671483	      1.06743974	     27.94274583	     -3.49530566	    -11.57325244	    -42.60670809	     -0.74362734	      5.87724167	    -15.97490767	     19.92518815	     12.46573093	     -1.35041764	     10.67308064	    -27.26320274	     -0.47583265	     13.31772738	      9.63321929	     -0.94143557	     -3.98971400	     -0.89542854	     -7.21606508	     -4.69938341	     -7.63084544	    -20.19784480	     25.98421164	     89.95437384	      0.00000000	      0.00000000	      2.55159831	     11.04906287	     22.33419196	     35.91934710	     89.95437384	      0.00000000	      0.00000000
      0.04000000	     -3.31249866	     -1.51561602	      3.52956642	     -0.94829761	      0.89657919	      1.06740385	     28.09525138	     -3.05798506	    -11.72829795	    -40.09355930	     -0.69976462	      5.90862133	    -15.34527700	     19.66147919	     12.04698114	     -1.01853105	     10.17482730	    -27.12841610	     -0.47348018	     13.68743672	      9.37554866	     -1.03703454	     -4.00737720	     -0.48752496	     -7.53703472	     -4.52901562	     -7.56411932	    -20.50415681	     25.93099180	     89.95437384	      0.00000000	      0.00000000	      2.65401893	     11.19465663	     22.02406244	     36.48435849	     89.95437384	      0.00000000	      0.00000000
      0.05000000	     -3.63104867	     -1.32800056	      3.67312828	     -0.94217543	      0.89584151	      1.06714522	     28.79551853	     -3.37403601	    -12.01742958	    -38.14772627	     -0.66580343	      5.99204769	    -14.85588298	     19.42287982	     11.90607236	     -1.22604592	     10.32217149	    -27.04852534	     -0.47208582	     13.82052521	      9.17243506	     -1.06706977	     -3.71335517	     -0.68348337	     -7.64665594	     -4.61010845	     -7.54578814	    -20.54788946	     26.12175419	     89.95437384	      0.00000000	      0.00000000	      2.81685069	     11.29697833	     21.91493362	     36.91586660	     89.95437384	      0.00000000	      0.00000000
      0.06000000	     -3.57030275	     -1.74625845	      4.09506255	     -0.93594818	      0.89584763	      1.06709818	     28.67267360	     -2.88662743	    -12.22786343	    -35.49336148	     -0.61947602	      5.94787961	    -14.06446166	     19.15387006	     11.40465283	     -0.81093159	      9.69671782	    -26.98372227	     -0.47095480	     14.16652573	      8.96654468	     -1.19210727	     -3.84096904	     -0.19485537	     -8.04718394	     -4.41881229	     -7.45542976	    -20.94371878	     26.03334719	     89.95437384	      0.00000000	      0.00000000	      2.92765812	     11.44297270	     21.62371413	     37.40020383	     89.95437384	      0.00000000	      0.00000000
      0.07000000	     -3.57655126	     -1.88925995	      4.42015187	     -0.92963145	      0.89559072	      1.06702001	     28.73050102	     -2.74062079	    -12.48491265	    -33.14912782	     -0.57856142	      6.09403863	    -13.38730110	     18.73593749	     10.96377662	     -0.61475160	      9.54679946	    -26.94102105	     -0.47020952	     14.34398329	      8.66029192	     -1.34151949	     -3.89325718	     -0.00049105	     -8.33147769	     -4.36878035	     -7.39802022	    -21.21413059	     26.18306964	     89.95437384	      0.00000000	      0.00000000	      3.06363921	     11.56986618	     21.45293574	     37.80277580	     89.95437384	      0.00000000	      0.00000000
      0.08000000	     -3.92297833	     -1.72183541	      4.55259593	     -0.92332909	      0.89469737	      1.06694545	     29.36985524	     -2.94675794	    -12.67117579	    -31.29079574	     -0.54612741	      6.26700959	    -12.81617714	     18.47385484	     10.83614990	     -0.80799817	      9.57983528	    -26.86561401	     -0.46889342	     14.55728607	      8.48261238	     -1.39645576	     -3.55090140	     -0.17905011	     -8.41619079	     -4.44365611	     -7.36318171	    -21.25164702	     26.29927386	     89.95437384	      0.00000000	      0.00000000	      3.17006193	     11.66574426	     21.33245844	     38.15677711	     89.95437384	      0.00000000	      0.00000000
      0.09000000	     -4.12616461	     -1.89076801	      4.85937953	     -0.91718849	      0.89404515	      1.06699686	     29.62323041	     -2.71102164	    -12.58705676	    -29.07841646	     -0.50751411	      6.37707756	    -11.63246410	     18.06430585	     10.66183940	     -0.65020266	      9.13644695	    -26.88456034	     -0.46922410	     14.79962617	      8.26661380	     -1.49053027	     -3.37725319	      0.01614562	     -8.71968166	     -4.36160154	     -7.31555993	    -21.45854333	     26.37686277	     89.95437384	      0.00000000	      0.00000000	      3.25355462	     11.77857269	     21.19931576	     38.54755838	     89.95437384	      0.00000000	      0.00000000
      0.10000000	     -4.28333077	     -2.00710079	      5.14656501	     -0.91071567	      0.89338217	      1.06698172	     29.86602397	     -2.60268427	    -12.80792604	    -27.12137573	     -0.47335730	      6.63488849	    -10.61467456	     17.66311767	     10.39673595	     -0.50535744	      8.97485631	    -26.91002200	     -0.46966849	     15.08250123	      8.15006472	     -1.58821739	     -3.20561312	      0.16619427	     -8.94987250	     -4.34811090	     -7.28900151	    -21.59763831	     26.42135085	     89.95437384	      0.00000000	      0.00000000	      3.35034760	     11.85914138	     21.08291242	     38.84534500	     89.95437384	      0.00000000	      0.00000000
      0.11000000	     -4.06378291	     -2.36593724	      5.46776011	     -0.90388225	      0.89328142	      1.06715132	     29.62782987	     -2.31737324	    -13.63040774	    -25.20303780	     -0.43987599	      6.98465454	     -8.76376715	     16.65277441	      9.73070675	      0.03374104	      8.92192630	    -26.97648744	     -0.47082853	     15.40758194	      7.84905048	     -1.91796538	     -3.43813175	      0.61706974	     -9.14856413	     -4.25990069	     -7.24622973	    -22.01575508	     26.46260366	     89.95437384	      0.00000000	      0.00000000	      3.52099809	     11.87353600	     21.07020066	     39.11775094	     89.95437384	      0.00000000	      0.00000000
      0.12000000	     -4.36178353	     -2.37344149	      5.64930593	     -0.89744351	      0.89236111	      1.06731630	     30.12263362	     -2.27247778	    -13.57628853	    -23.71736846	     -0.41394617	      7.10602441	     -7.73710932	     16.16329473	      9.58347072	      0.06575217	      8.76772676	    -26.96291635	     -0.47059167	     15.59369441	      7.62078207	     -2.05278554	     -3.12094284	      0.63265553	     -9.28899621	     -4.27730283	     -7.22043623	    -22.02847391	     26.53264083	     89.95437384	      0.00000000	      0.00000000	      3.58350337	     11.93076876	     21.01333058	     39.37281433	     89.95437384	      0.00000000	      0.00000000
